**ABCDEFGHIJKLMNOPQRSTUVWXYZabcdefghijklmnopqrstuvwxyz**************************
**PARASOLID !"#$%&'()*+,-./:;<=>?@[\]^_`{|}~0123456789**************************
**PART1;
MC=AMD64;
MC_MODEL=Intel64 Family 6 Model 142 Stepping 9, GenuineIntel;
MC_ID=unknown;
OS=Windows_NT;
OS_RELEASE=unknown;
FRU=Parasolid Version 32.1, build 255,  1- 1-2021;
APPL=SOLIDWORKS 2021-2021085;
SITE=;
USER=unknown;
FORMAT=text;
GUISE=transmit;
KEY=Electronics Box Lid;
FILE=Electronics Box Lid.x_t;
DATE=Sat Nov 13 15:40:25 2021;
**PART2;
SCH=SCH_3201255_32001;
USFLD_SIZE=0;
**PART3;
**END_OF_HEADER*****************************************************************
T51 : TRANSMIT FILE created by modeller version 320125523 SCH_3201255_32001_1300
6229 0 12 34 CCCCCCI4 mesh1006 0 I8 polyline1008 0 CCCCCCCDI5 owner1040 0 CCCCCC
I13 boundary_mesh1006 0 I17 boundary_polyline1008 0 CCCA16 index_map_offset0 0 1
 dA9 index_map82 0 A17 node_id_index_map82 0 A20 schema_embedding_map82 0 A5 chi
ld12 0 A14 lowest_node_id0 0 1 dA16 mesh_offset_data206 0 Z1 807 2 3 0 0 0 0 0 0
 1e3 1e-8 0 4 0 1 0 1 1 5 6 7 8 0 0 9 10 11 0 0 0 0 0 0 0 81 255 2 2 781 12 1 13
 0 0 0 0 14 70 11 CI9 list_type0 0 1 uI10 notransmit0 0 1 lCCCDCCDI12 finger_ind
ex0 0 1 dI12 finger_block1012 0 CZ3 0 4 T1 0 0 7 20 1 15 15 13 255 5 351 0 1 0 1
6 0 0 17 0 50 255 6 334 0 18 19 0 0 +.0027 .01335 .282 1 410881098944662e-30 0 -
410881098944662e-30 1 0 30 255 7 350 0 20 21 0 0 +.0027 .00596157037703437 .282
 0 0 -1 29 255 8 457 0 11 22 0 .0647 .010175 0 19 8 CCCCCCCA5 owner12 0 Z9 117 0
 1 17 0 23 V0 16 255 10 458 0 ?24 0 20 25 26 26 1 18 255 11 455 0 27 0 28 8 ?1 1
7 255 27 0 29 30 31 11 32 26 0 33 -18 28 114 0 34 11 35 36 ?1 17 34 0 37 38 39 2
8 40 41 0 42 +18 35 111 0 39 28 43 44 ?1 29 36 116 0 28 44 45 .0027 .01335 .282
 29 44 113 0 35 46 36 .0647 .01335 .282 29 45 270 0 47 36 48 .0027 .005961570377
03437 0 18 47 237 0 49 50 51 45 ?1 29 48 269 0 50 45 52 -260208521396521e-32 .00
596157037703437 0 18 50 236 0 53 54 47 48 ?1 29 52 268 0 54 48 55 0 0 0 18 54 23
5 0 56 57 50 52 ?1 29 55 267 0 57 52 58 .0028 0 0 18 57 234 0 59 60 54 55 ?1 29
 58 266 0 60 55 61 .0028 .003175 0 18 60 233 0 62 63 57 58 ?1 29 61 265 0 63 58
 64 .0054 .003175 0 18 63 232 0 65 66 60 61 ?1 29 64 264 0 66 61 67 .0054 .01017
5 0 18 66 231 0 68 69 63 64 ?1 29 67 263 0 69 64 70 .062 .010175 0 18 69 230 0 7
1 72 66 67 ?1 29 70 262 0 72 67 73 .062 .003175 0 18 72 229 0 74 75 69 70 ?1 29
 73 261 0 75 70 76 .0646 .003175 0 18 75 228 0 77 78 72 73 ?1 29 76 260 0 78 73
 79 .0646 0 0 18 78 227 0 80 81 75 76 ?1 29 79 259 0 81 76 82 .0674 0 0 18 81 22
6 0 83 84 78 79 ?1 29 82 258 0 84 79 22 .0674 .00596157037703436 0 18 84 225 0 8
5 86 81 82 ?1 29 22 257 0 86 82 8 .0647 .00596157037703436 0 18 86 224 0 87 88 8
4 22 ?1 17 87 0 89 90 91 86 92 93 0 94 +18 88 69 0 95 96 86 97 ?1 17 95 0 98 99
 100 88 101 102 0 38 -18 96 72 0 101 103 88 104 ?1 29 97 71 0 88 105 104 .0027 .
00596157037703437 .282 29 105 635 0 51 106 97 .0647 .00913657037703437 -.0051 29
 104 74 0 96 97 107 -260208521396521e-32 .00596157037703437 .282 29 107 77 0 103
 104 108 0 0 .282 18 103 75 0 109 110 96 107 ?1 29 108 80 0 110 107 111 .0028 0
 .282 18 110 78 0 112 113 103 108 ?1 29 111 83 0 113 108 114 .0028 .003175 .282
 18 113 81 0 115 116 110 111 ?1 29 114 86 0 116 111 117 .0054 .003175 .282 18 11
6 84 0 118 119 113 114 ?1 29 117 89 0 119 114 120 .0054 .010175 .282 18 119 87 0
 121 122 116 117 ?1 29 120 92 0 122 117 123 .062 .010175 .282 18 122 90 0 124 12
5 119 120 ?1 29 123 95 0 125 120 126 .062 .003175 .282 18 125 93 0 127 128 122 1
23 ?1 29 126 98 0 128 123 129 .0646 .003175 .282 18 128 96 0 130 131 125 126 ?1
 29 129 101 0 131 126 132 .0646 0 .282 18 131 99 0 133 134 128 129 ?1 29 132 104
 0 134 129 135 .0674 0 .282 18 134 102 0 136 137 131 132 ?1 29 135 107 0 137 132
 46 .0674 .00596157037703436 .282 18 137 105 0 138 43 134 135 ?1 29 46 110 0 43
 135 44 .0647 .00596157037703436 .282 18 43 108 0 139 35 137 46 ?1 17 139 0 37 3
9 138 43 140 141 0 90 +15 255 37 4 0 38 142 0 17 39 0 37 34 139 35 143 144 0 145
 +17 138 0 37 139 136 137 146 147 0 148 +17 140 0 89 91 90 137 139 141 0 0 -16 1
41 57 0 ?139 144 147 149 0 0 1 17 90 0 89 140 87 43 94 150 0 143 -15 89 291 0 87
 151 0 17 94 0 152 33 143 86 90 150 0 30 +16 150 273 0 ?94 153 154 155 0 0 1 17
 143 0 152 94 145 43 39 144 0 0 -15 152 289 0 33 156 0 17 145 0 152 143 157 35 1
58 154 0 40 -16 144 61 0 ?39 41 141 159 0 0 1 16 41 65 0 ?34 160 144 161 0 0 1 3
0 159 63 0 144 149 161 0 +.0647 .01335 .282 -1878313595175595e-30 1 0 30 149 59
 0 141 162 159 0 +.0647 .00596157037703436 .282 -1 0 0 30 161 67 0 41 159 163 0
 +.0027 .01335 .282 -1 0 0 30 163 254 0 164 161 165 0 +.0027 .01335 0 4108810989
44662e-30 -1 0 16 164 453 0 ?49 166 167 163 0 0 1 30 165 253 0 166 163 168 0 +.0
027 .00596157037703437 0 -1 0 0 16 166 214 0 ?53 169 164 165 0 0 1 30 168 252 0
 169 165 170 0 +-260208521396521e-32 .00596157037703437 0 4364764733784185e-31 -
1 0 16 169 210 0 ?56 171 166 168 0 0 1 30 170 251 0 171 168 172 0 +0 0 0 1 0 0 1
6 171 206 0 ?59 173 169 170 0 0 1 30 172 250 0 173 170 174 0 +.0028 0 0 -1365923
99683213e-30 1 0 16 173 202 0 ?62 175 171 172 0 0 1 30 174 249 0 175 172 176 0 +
.0028 .003175 0 1 0 0 16 175 198 0 ?65 177 173 174 0 0 1 30 176 248 0 177 174 17
8 0 +.0054 .003175 0 123908819712629e-30 1 0 16 177 194 0 ?179 180 175 176 0 0 1
 30 178 246 0 180 176 181 0 +.062 .010175 0 0 -1 0 16 180 186 0 ?74 182 177 178
 0 0 1 30 181 245 0 182 178 183 0 +.062 .003175 0 1 0 0 16 182 182 0 ?77 184 180
 181 0 0 1 30 183 244 0 184 181 185 0 +.0646 .003175 0 0 -1 0 16 184 178 0 ?80 1
86 182 183 0 0 1 30 185 243 0 186 183 187 0 +.0646 0 0 1 0 0 16 186 174 0 ?83 18
8 184 185 0 0 1 30 187 242 0 188 185 189 0 +.0674 .00596157037703436 0 0 1 0 16
 188 170 0 ?85 93 186 187 0 0 1 30 189 241 0 93 187 190 0 +.0647 .00596157037703
436 0 -1 0 0 16 93 166 0 ?87 191 188 189 0 0 1 30 190 240 0 191 189 192 0 +.0647
 .01335 0 -1878313595175595e-30 1 0 16 191 162 0 ?33 193 93 190 0 0 1 30 192 335
 0 160 190 194 0 +.0027 .01335 .282 0 0 -1 16 160 271 0 ?195 154 41 192 0 0 1 30
 194 336 0 154 192 155 0 +.0647 .01335 .282 0 0 -1 16 154 272 0 ?158 150 160 194
 0 0 1 30 155 337 0 150 194 196 0 +.0647 .00596157037703436 .282 0 0 -1 30 196 3
38 0 153 155 197 0 +.0674 .00596157037703436 .282 0 0 -1 16 153 274 0 ?91 198 15
0 196 0 0 1 30 197 339 0 198 196 199 0 +.0674 0 .282 0 0 -1 16 198 275 0 ?200 20
1 153 197 0 0 1 30 199 340 0 201 197 202 0 +.0646 0 .282 0 0 -1 16 201 276 0 ?20
3 204 198 199 0 0 1 30 202 341 0 204 199 205 0 +.0646 .003175 .282 0 0 -1 16 204
 277 0 ?206 207 201 202 0 0 1 30 205 342 0 207 202 208 0 +.062 .003175 .282 0 0
 -1 16 207 278 0 ?209 210 204 205 0 0 1 30 208 343 0 210 205 211 0 +.062 .010175
 .282 0 0 -1 16 210 279 0 ?71 212 207 208 0 0 1 30 211 344 0 212 208 213 0 +.005
4 .010175 .282 0 0 -1 16 212 280 0 ?214 215 210 211 0 0 1 30 213 345 0 215 211 2
16 0 +.0054 .003175 .282 0 0 -1 16 215 281 0 ?217 218 212 213 0 0 1 30 216 346 0
 218 213 219 0 +.0028 .003175 .282 0 0 -1 16 218 282 0 ?220 221 215 216 0 0 1 30
 219 347 0 221 216 222 0 +.0028 0 .282 0 0 -1 16 221 283 0 ?223 224 218 219 0 0
 1 30 222 348 0 224 219 21 0 +0 0 .282 0 0 -1 16 224 284 0 ?225 226 221 222 0 0
 1 30 21 349 0 226 222 7 0 +-260208521396521e-32 .00596157037703437 .282 0 0 -1
 16 226 285 0 ?227 20 224 21 0 0 1 17 227 0 228 56 229 50 100 226 0 230 +16 20 2
86 0 ?99 10 226 7 0 0 1 17 99 0 98 53 95 47 231 20 0 0 +15 98 315 0 53 232 0 17
 53 0 98 100 99 50 233 166 0 227 +17 231 0 234 235 49 88 99 20 0 0 -15 234 317 0
 195 18 0 17 235 0 234 195 231 28 38 193 0 0 -17 49 0 234 231 236 47 237 164 0 2
33 +17 236 0 234 49 238 239 240 241 0 0 +17 237 0 242 68 233 239 49 164 0 24 -17
 233 0 242 237 230 47 53 166 0 99 -15 242 459 0 68 243 0 17 230 0 242 233 244 50
 56 169 0 0 -17 244 0 242 230 245 54 59 171 0 0 -17 56 0 228 246 227 54 230 169
 0 225 +15 228 313 0 56 247 0 17 246 0 228 229 56 103 225 224 0 248 -17 225 0 24
9 59 248 54 246 224 0 244 +15 249 311 0 59 250 0 17 59 0 249 251 225 57 244 171
 0 223 +17 248 0 249 225 251 103 112 252 0 0 -17 251 0 249 248 59 110 223 221 0
 253 -17 112 0 37 115 109 110 248 252 0 251 +16 252 17 0 ?112 254 255 256 0 0 1
 16 254 21 0 ?115 257 252 258 0 0 1 16 255 13 0 ?109 252 102 259 0 0 1 30 256 19
 0 252 259 258 0 +0 0 .282 1 0 0 30 259 15 0 255 260 256 0 +-260208521396521e-32
 .00596157037703437 .282 4364764733784185e-31 -1 0 30 258 23 0 254 256 261 0 +.0
028 0 .282 -136592399683213e-30 1 0 30 261 27 0 257 258 262 0 +.0028 .003175 .28
2 1 0 0 16 257 25 0 ?118 263 254 261 0 0 1 30 262 31 0 263 261 264 0 +.0054 .003
175 .282 123908819712629e-30 1 0 16 263 29 0 ?121 265 257 262 0 0 1 30 264 35 0
 265 262 266 0 +.0054 .010175 .282 1 0 0 16 265 33 0 ?124 267 263 264 0 0 1 30 2
66 39 0 267 264 268 0 +.062 .010175 .282 0 -1 0 16 267 37 0 ?127 269 265 266 0 0
 1 30 268 43 0 269 266 270 0 +.062 .003175 .282 1 0 0 16 269 41 0 ?130 271 267 2
68 0 0 1 30 270 47 0 271 268 272 0 +.0646 .003175 .282 0 -1 0 16 271 45 0 ?133 2
73 269 270 0 0 1 30 272 51 0 273 270 162 0 +.0646 0 .282 1 0 0 16 273 49 0 ?136
 147 271 272 0 0 1 30 162 55 0 147 272 149 0 +.0674 .00596157037703436 .282 0 1
 0 16 147 53 0 ?138 141 273 162 0 0 1 17 136 0 37 138 133 134 274 273 0 275 +17
 133 0 37 136 130 131 276 271 0 277 +17 274 0 278 203 275 131 136 273 0 0 -17 27
5 0 278 274 83 134 200 198 0 146 -15 278 295 0 83 279 0 17 83 0 278 275 203 81 2
80 186 0 200 +17 200 0 281 85 146 81 275 198 0 282 +17 146 0 281 200 148 134 138
 147 0 0 -15 281 293 0 85 283 0 17 148 0 281 146 85 137 91 153 0 140 -17 85 0 28
1 148 200 84 282 188 0 91 +17 91 0 89 87 140 84 148 153 0 92 +17 92 0 29 282 30
 84 87 93 0 0 -15 29 463 0 27 16 0 17 282 0 29 280 92 81 85 188 0 0 -17 30 0 29
 92 27 86 33 191 0 0 -17 33 0 152 284 94 11 30 191 0 285 +17 284 0 152 286 33 28
7 285 167 0 288 +17 285 0 289 32 290 11 284 167 0 0 -15 289 303 0 214 291 0 17 3
2 0 289 292 285 69 27 26 0 0 +17 290 0 289 285 240 287 293 294 0 0 -16 167 510 0
 ?284 164 295 296 0 0 1 16 295 511 0 ?286 167 297 298 0 0 1 30 296 625 0 167 298
 299 0 +.0647 .010175 -.001925 0 0 -1 30 298 626 0 295 300 296 0 +.0647 .0059615
7037703434 -.001925 1878313595175595e-30 -1 0 30 299 621 0 301 296 302 0 +.0027
 .01335 -.0051 2058564674394415e-31 -1 2058564674394415e-31 16 301 485 0 ?303 30
4 0 299 0 0 1 30 302 620 0 304 299 305 0 +.0027 .00913657037703437 -.0051 0 -177
19286625001e-29 -1 16 304 488 0 ?306 307 301 302 0 0 1 30 305 619 0 307 302 308
 0 +.0027 .00913657037703437 -.01489002999776074 949329674260048e-31 -1 18986593
48520095e-31 16 307 491 0 ?309 310 304 305 0 0 1 30 308 618 0 310 305 311 0 +.00
27 1109378967150588e-33 -.01489002999776074 0 0 1 16 310 494 0 ?312 313 307 308
 0 0 1 30 311 617 0 313 308 314 0 +.0027 1109378967150588e-33 -.0117150299977607
4 -1454921577928062e-31 1 0 16 313 497 0 ?315 316 310 311 0 0 1 30 314 616 0 316
 311 317 0 +.0027 .00596157037703437 -.01171502999776074 0 0 1 16 316 500 0 ?318
 319 313 314 0 0 1 30 317 615 0 319 314 320 0 +.0027 .00596157037703437 -.001925
 -1029282337197208e-31 1 0 16 319 503 0 ?238 241 316 317 0 0 1 30 320 614 0 241
 317 25 0 +.0027 .010175 -.001925 0 0 1 16 241 506 0 ?236 321 319 320 0 0 1 30 2
5 613 0 26 320 322 0 +.0846983872683328 .010175 0 -1 -1173945996984748e-31 0 16
 26 468 0 ?32 323 294 25 10 10 1 30 322 612 0 294 25 324 0 +.0846983872683328 .0
10175 -.001925 -1 -1173945996984748e-31 0 16 294 471 0 ?293 26 325 322 0 0 1 30
 324 611 0 325 322 326 0 +.0846983872683328 .00596157037703438 -.001925 -1 -1173
945996984748e-31 0 16 325 472 0 ?327 294 328 324 0 0 1 30 326 610 0 328 324 329
 0 +.0846983872683328 .00596157037703438 -.01171502999776074 -1 -117394599698474
8e-31 0 16 328 473 0 ?330 325 331 326 0 0 1 30 329 609 0 331 326 332 0 +.0846983
872683328 1073554681643702e-32 -.01171502999776074 -1 -1173945996984748e-31 0 16
 331 474 0 ?333 328 334 329 0 0 1 30 332 608 0 334 329 335 0 +.0846983872683328
 1073554681643702e-32 -.01489002999776074 -1 -1173945996984748e-31 0 16 334 475
 0 ?336 331 337 332 0 0 1 30 335 607 0 337 332 338 0 +.0846983872683328 .0091365
7037703438 -.01489002999776074 -1 -1173945996984748e-31 0 16 337 476 0 ?339 334
 340 335 0 0 1 30 338 606 0 340 335 341 0 +.0846983872683328 .00913657037703438
 -.0051 -1 -1173945996984748e-31 0 16 340 477 0 ?342 337 321 338 0 0 1 30 341 60
5 0 321 338 343 0 +.0846983872683328 .01335 -.0051 -1 -1173945996984748e-31 0 16
 321 478 0 ?344 340 241 341 0 0 1 30 343 7 0 193 341 260 0 +.0027 .01335 .282 41
0881098944662e-30 -1 0 16 193 5 0 ?38 102 191 343 0 0 1 30 260 11 0 102 343 259
 0 +.0027 .00596157037703437 .282 -1 0 0 16 102 9 0 ?101 255 193 260 0 0 1 17 10
1 0 37 109 38 96 95 102 0 100 +17 109 0 37 112 101 103 229 255 0 246 +17 38 0 37
 101 34 88 235 193 0 231 +17 100 0 98 95 53 96 227 226 0 229 -17 229 0 228 227 2
46 96 109 255 0 0 -17 344 0 345 42 158 346 347 321 0 348 +15 345 287 0 158 349 0
 17 42 0 345 40 344 28 195 160 0 235 -17 158 0 345 344 40 350 145 154 0 157 +18
 346 530 0 195 351 0 352 ?1 17 347 0 353 354 348 350 344 321 0 0 -17 348 0 353 3
47 342 346 303 301 0 0 -15 353 576 0 354 355 0 17 342 0 353 348 354 351 356 340
 0 357 +17 303 0 234 306 195 351 348 301 0 0 +17 306 0 234 309 303 358 357 304 0
 0 +17 195 0 234 303 235 346 42 160 0 344 +18 351 529 0 342 358 346 359 ?1 18 35
8 528 0 339 360 351 361 ?1 29 359 652 0 351 352 361 .0027 .00913657037703437 -.0
051 29 352 653 0 346 0 359 .0027 .01335 -.0051 29 361 651 0 358 359 362 .0027 .0
0913657037703437 -.01489002999776074 29 362 650 0 360 361 363 .0027 110937896715
0588e-33 -.01489002999776074 18 360 527 0 336 364 358 362 ?1 29 363 649 0 364 36
2 365 .0027 1109378967150588e-33 -.01171502999776074 18 364 526 0 333 366 360 36
3 ?1 29 365 648 0 366 363 367 .0027 .00596157037703437 -.01171502999776074 18 36
6 525 0 330 368 364 365 ?1 29 367 647 0 368 365 369 .0027 .00596157037703437 -.0
01925 18 368 524 0 327 370 366 367 ?1 29 369 646 0 370 367 371 .0027 .010175 -.0
01925 18 370 523 0 293 239 368 369 ?1 29 371 645 0 239 369 372 .0027 .010175 0 1
8 239 522 0 237 350 370 371 ?1 29 372 644 0 350 371 373 .0647 .01335 -.0051 18 3
50 539 0 158 287 239 372 ?1 29 373 642 0 287 372 374 .0647 .010175 -.001925 18 2
87 532 0 284 375 350 373 ?1 29 374 641 0 375 373 376 .0647 .00596157037703438 -.
001925 18 375 533 0 286 377 287 374 ?1 29 376 640 0 377 374 378 .0647 .005961570
37703438 -.01171502999776074 18 377 534 0 379 380 375 376 ?1 29 378 639 0 380 37
6 381 .0647 838784414845603e-32 -.01171502999776074 18 380 535 0 382 383 377 378
 ?1 29 381 637 0 383 378 106 .0647 0 -.01489002999776074 18 383 536 0 384 385 38
0 381 ?1 29 106 636 0 385 381 105 .0647 .00913657037703438 -.01489002999776074 1
8 385 537 0 386 51 383 106 ?1 17 386 0 152 387 384 385 388 389 0 390 +18 51 538
 0 387 47 385 105 ?1 17 387 0 152 157 386 51 390 391 0 354 +17 157 0 152 145 387
 350 354 323 0 347 +17 390 0 392 339 356 385 387 391 0 393 -16 391 516 0 ?387 38
9 323 394 0 0 1 17 354 0 353 342 347 51 157 323 0 356 -16 323 517 0 ?157 391 26
 395 0 0 1 17 356 0 392 390 357 51 342 340 0 0 -15 392 572 0 390 396 0 17 357 0
 392 356 339 351 306 304 0 303 -17 339 0 392 357 390 358 393 337 0 397 +17 393 0
 398 388 397 385 339 337 0 0 -17 397 0 398 393 336 358 309 307 0 306 -15 398 568
 0 388 399 0 17 336 0 398 397 388 360 400 334 0 401 +17 309 0 234 312 306 360 39
7 307 0 0 +17 312 0 234 315 309 364 401 310 0 0 +17 315 0 234 318 312 366 402 31
3 0 0 +17 401 0 403 400 333 360 312 310 0 309 -15 403 564 0 404 405 0 17 400 0 4
03 404 401 383 336 334 0 0 -17 333 0 403 401 404 364 406 331 0 402 +17 404 0 403
 333 400 380 384 407 0 406 -17 406 0 408 409 402 380 333 331 0 0 -17 402 0 408 4
06 330 364 315 313 0 312 -15 408 560 0 409 410 0 17 330 0 408 402 409 366 411 32
8 0 412 +17 409 0 408 330 406 377 382 413 0 411 -17 411 0 414 415 412 377 330 32
8 0 0 -17 412 0 414 411 327 366 318 316 0 315 -15 414 556 0 415 416 0 17 327 0 4
14 412 415 368 417 325 0 418 +17 318 0 234 238 315 368 412 316 0 0 +17 238 0 234
 236 318 370 418 319 0 240 +17 418 0 419 417 293 368 238 319 0 318 -17 240 0 289
 290 24 370 236 241 0 0 -17 24 0 289 240 214 239 68 10 0 236 +17 214 0 289 24 42
0 66 421 212 0 0 +17 68 0 242 422 237 66 24 10 0 179 -17 422 0 242 423 68 63 179
 177 0 0 -17 179 0 424 421 217 66 422 177 0 214 +15 424 305 0 179 425 0 17 421 0
 424 426 179 119 214 212 0 420 -17 217 0 424 179 426 63 427 215 0 422 +17 426 0
 424 217 421 116 121 263 0 0 -17 427 0 428 429 65 116 217 215 0 426 -15 428 307
 0 65 430 0 17 429 0 428 220 427 113 118 257 0 0 -17 65 0 428 427 220 63 423 175
 0 217 +17 220 0 428 65 429 60 431 218 0 423 +17 423 0 242 245 422 60 65 175 0 0
 -17 245 0 242 244 423 57 62 173 0 0 -17 62 0 432 431 223 60 245 173 0 220 +15 4
32 309 0 62 433 0 17 431 0 432 253 62 113 220 218 0 429 -17 223 0 432 62 253 57
 251 221 0 245 +17 253 0 432 223 431 110 115 254 0 0 -17 115 0 37 118 112 113 25
3 254 0 431 +17 118 0 37 121 115 116 429 257 0 427 +17 121 0 37 124 118 119 426
 263 0 421 +17 124 0 37 127 121 122 420 265 0 292 +17 127 0 37 130 124 125 434 2
67 0 435 +17 420 0 289 214 292 119 124 265 0 0 -17 292 0 289 420 32 122 71 210 0
 434 -17 71 0 436 74 434 69 292 210 0 31 +17 434 0 436 71 435 122 127 267 0 0 -1
5 436 301 0 74 437 0 17 435 0 436 434 74 125 209 207 0 438 -17 74 0 436 435 71 7
2 31 180 0 209 +17 209 0 439 77 438 72 435 207 0 440 +17 438 0 439 209 441 125 1
30 269 0 0 -15 439 299 0 77 442 0 17 441 0 439 438 77 128 206 204 0 276 -17 130
 0 37 133 127 128 438 269 0 441 +17 77 0 439 441 209 75 440 182 0 206 +17 206 0
 443 80 276 75 441 204 0 444 +17 276 0 443 206 277 128 133 271 0 0 -15 443 297 0
 80 445 0 17 277 0 443 276 80 131 203 201 0 274 -17 80 0 443 277 206 78 444 184
 0 203 +17 203 0 278 83 274 78 277 201 0 280 +17 280 0 29 444 282 78 83 186 0 0
 -17 444 0 29 440 280 75 80 184 0 0 -17 440 0 29 31 444 72 77 182 0 0 -17 31 0 2
9 27 440 69 74 180 0 32 -14 255 445 298 446 ?279 442 443 5 447 -0 0 279 442 23 8
1 1 446 782 448 445 449 0 0 450 451 14 279 296 450 ?283 445 278 5 452 -0 0 283 4
45 23 14 442 300 453 ?445 437 439 5 454 -0 0 445 437 23 50 447 324 0 445 452 454
 0 +.0646 .003175 .282 1 0 0 0 0 -1 13 23 118 0 0 0 0 0 0 9 16 14 16 460 455 ?18
 0 29 5 456 +243 243 18 0 23 81 1 455 785 448 16 457 0 453 458 459 14 18 318 458
 ?232 16 234 5 6 -0 0 232 16 23 50 456 238 0 243 460 461 0 +0 0 0 0 0 -1 -1 0 0
 14 243 156 462 ?463 142 242 5 456 +16 16 463 142 23 81 1 462 787 448 243 464 0
 458 465 466 14 463 549 465 ?416 243 419 5 467 +0 0 416 243 23 14 142 1 468 ?243
 349 37 5 460 -0 0 243 349 23 81 1 468 789 448 142 469 0 465 470 471 14 349 288
 470 ?142 156 345 5 461 -0 0 142 156 23 50 460 3 0 142 472 456 0 +0 0 .282 0 0 -
1 -1 0 0 50 472 593 0 355 473 460 0 +.0846983872683328 .01335 -.0051 24166437590
3954e-46 -2058564674394415e-31 -1 0 1 -2058564674394415e-31 14 355 573 474 ?0 39
6 353 5 472 +0 0 0 396 23 50 473 594 0 396 475 472 0 +.0846983872683328 .0091365
7037703438 -.0051 -1173945996984748e-31 1 -17719286625001e-29 0 17719286625001e-
29 1 14 396 569 476 ?355 399 392 5 473 +0 0 355 399 23 50 475 595 0 399 477 473
 0 +.0846983872683328 .00913657037703438 -.01489002999776074 2228923541832835e-4
7 -1898659348520095e-31 -1 0 1 -1898659348520095e-31 14 399 565 478 ?396 405 398
 5 475 +0 0 396 405 23 50 477 596 0 405 479 475 0 +.0846983872683328 10735546816
43702e-32 -.01489002999776074 1173945996984748e-31 -1 0 1 1173945996984748e-31 0
 14 405 561 480 ?399 410 403 5 477 +0 0 399 410 23 50 479 597 0 410 481 477 0 +.
0846983872683328 1073554681643702e-32 -.01171502999776074 0 0 1 1 0 0 14 410 557
 482 ?405 416 408 5 479 +0 0 405 416 23 50 481 598 0 416 467 479 0 +.08469838726
83328 .00596157037703438 -.01171502999776074 1173945996984748e-31 -1 0 1 1173945
996984748e-31 0 14 416 553 483 ?410 463 414 5 481 +0 0 410 463 23 50 467 599 0 4
63 0 481 0 +.0846983872683328 .00596157037703438 -.001925 0 0 1 1 0 0 81 1 483 7
96 448 416 484 0 482 485 486 80 255 1 448 487 488 9000 1 1 1 1 1 1 1 1 0 FFFFTFT
FFFFFFF1 81 1 484 718 489 416 0 483 490 491 492 81 1 482 795 448 410 491 0 480 4
83 493 81 1 485 797 448 156 494 0 483 495 496 82 255 1 486 -46137168 14 156 290
 485 ?349 151 152 5 497 -0 0 349 151 23 81 1 494 713 489 156 0 485 498 499 500 8
1 1 495 798 448 291 501 0 485 502 503 82 1 496 -104726352 14 291 304 495 ?437 42
5 289 5 504 -0 0 437 425 23 81 1 501 706 489 291 0 495 505 506 507 81 1 502 799
 448 151 498 0 495 508 509 82 1 503 -102891344 14 151 292 502 ?156 283 89 5 510
 -0 0 156 283 23 81 1 498 712 489 151 0 502 511 494 512 81 1 508 800 448 283 511
 0 502 513 514 82 1 509 -104464211 14 283 294 508 ?151 279 281 5 515 -0 0 151 27
9 23 81 1 511 711 489 283 0 508 516 498 517 81 1 513 801 448 430 518 0 508 519 5
20 82 1 514 -104202067 14 430 308 513 ?425 433 428 5 521 -0 0 425 433 23 81 1 51
8 704 489 430 0 513 522 505 523 81 1 519 802 448 433 522 0 513 524 525 82 1 520
 -102367059 14 433 310 519 ?430 250 432 5 526 -0 0 430 250 23 81 1 522 703 489 4
33 0 519 527 518 528 81 1 524 803 448 250 527 0 519 529 530 82 1 525 -102104915
 14 250 312 524 ?433 247 249 5 531 -0 0 433 247 23 81 1 527 702 489 250 0 524 53
2 522 533 81 1 529 804 448 247 532 0 524 534 535 82 1 530 -101842771 14 247 314
 529 ?250 232 228 5 536 -0 0 250 232 23 81 1 532 701 489 247 0 529 537 527 538 8
1 1 534 805 448 232 537 0 529 539 540 82 1 535 -101580627 14 232 316 534 ?247 18
 98 5 19 -0 0 247 18 23 81 1 537 700 489 232 0 534 541 532 542 81 1 539 806 448
 425 505 0 534 543 544 82 1 540 -101318483 14 425 306 539 ?291 430 424 5 545 -0
 0 291 430 23 81 1 505 705 489 425 0 539 518 501 546 81 1 543 807 448 437 506 0
 539 0 547 82 1 544 -102629200 14 437 302 543 ?442 291 436 5 548 -0 0 442 291 23
 81 1 506 707 489 437 0 543 501 549 550 82 1 547 -103153488 80 1 489 0 551 8001
 0 0 0 0 3 5 0 0 0 FFFFTFTFFFFFFF2 81 1 549 708 489 442 0 453 506 449 552 83 255
 3 550 1 1 1 81 1 453 784 448 442 549 0 450 455 553 81 1 449 709 489 445 0 446 5
49 516 554 83 3 552 1 1 1 81 1 516 710 489 279 0 450 449 511 555 83 3 554 1 1 1
 81 1 450 783 448 279 516 0 446 453 556 83 3 555 1 1 1 82 1 556 -103939923 82 1
 553 -103415635 79 255 15 551 SDL/TYSA_COLOUR50 548 326 0 437 454 504 0 +.062 .0
10175 .282 1 0 0 0 0 -1 50 454 325 0 442 447 548 0 +.062 .003175 .282 0 1 0 0 0
 1 50 504 327 0 291 548 545 0 +.0054 .010175 .282 0 1 0 0 0 1 50 545 328 0 425 5
04 521 0 +.0054 .003175 .282 -1 123908819712629e-30 0 -123908819712629e-30 -1 0
 50 521 329 0 430 545 526 0 +.0028 .003175 .282 0 1 0 0 0 1 50 526 330 0 433 521
 531 0 +.0028 0 .282 -1 -136592399683213e-30 0 136592399683213e-30 -1 0 50 531 3
31 0 250 526 536 0 +0 0 .282 0 1 0 0 0 1 50 536 332 0 247 531 19 0 +-26020852139
6521e-32 .00596157037703437 .282 1 4364764733784185e-31 0 -4364764733784185e-31
 1 0 50 19 333 0 232 536 6 0 +.0027 .00596157037703437 .282 0 -1 0 0 0 -1 83 3 5
46 1 1 1 81 1 541 699 489 18 0 458 457 537 557 83 3 542 1 1 1 81 1 458 786 448 1
8 541 0 455 462 558 81 1 457 698 489 16 0 455 0 541 559 83 3 557 1 1 1 83 3 559
 1 1 1 82 1 558 -101056336 83 3 538 1 1 1 83 3 533 1 1 1 83 3 528 1 1 1 83 3 523
 1 1 1 83 3 517 1 1 1 50 515 322 0 283 510 452 0 +.0674 .00596157037703436 .282
 -1 0 0 0 0 1 50 510 321 0 151 497 515 0 +.0647 .00596157037703436 .282 0 -1 0 0
 0 -1 50 452 323 0 279 515 447 0 +.0646 0 .282 0 1 0 0 0 1 50 497 320 0 156 461
 510 0 +.0647 .01335 .282 -1 -1878313595175595e-30 0 1878313595175595e-30 -1 0 5
0 461 319 0 349 456 497 0 +.0027 .01335 .282 0 -1 0 0 0 -1 83 3 512 1 1 1 83 3 5
07 1 1 1 81 1 499 714 489 349 0 470 494 469 560 83 3 500 1 1 1 81 1 470 790 448
 349 499 0 468 474 561 81 1 469 715 489 142 0 468 499 464 562 83 3 560 1 1 1 81
 1 464 716 489 243 0 462 469 490 563 83 3 562 1 1 1 81 1 490 717 489 463 0 465 4
64 484 564 83 3 563 1 1 1 81 1 465 788 448 463 490 0 462 468 565 83 3 564 1 1 1
 82 1 565 -46268240 81 1 474 791 448 355 566 0 470 476 567 82 1 561 -104988496 8
1 1 566 723 489 355 0 474 568 0 569 81 1 476 792 448 396 568 0 474 478 570 82 1
 567 -45481808 81 1 568 722 489 396 0 476 571 566 572 81 1 478 793 448 399 571 0
 476 480 573 82 1 570 -45612880 81 1 571 721 489 399 0 478 574 568 575 81 1 480
 794 448 405 574 0 478 482 576 82 1 573 -45743952 81 1 574 720 489 405 0 480 491
 571 577 82 1 576 -45875024 81 1 491 719 489 410 0 482 484 574 578 83 3 577 1 1
 1 83 3 578 1 1 1 83 3 575 1 1 1 83 3 572 1 1 1 83 3 569 1 1 1 82 1 493 -4600609
6 83 3 492 1 1 1 79 14 488 SWEntUnchanged82 1 471 -128057171 15 419 552 0 288 46
3 0 17 288 0 419 293 417 287 286 295 0 290 -17 293 0 419 418 288 370 290 294 0 2
38 +17 417 0 419 288 418 375 327 325 0 0 -17 286 0 152 379 284 375 288 295 0 415
 +17 379 0 152 382 286 377 415 297 0 409 +17 415 0 414 327 411 375 379 297 0 417
 -16 297 512 0 ?379 295 413 300 0 0 1 16 413 513 0 ?382 297 407 579 0 0 1 30 300
 627 0 297 579 298 0 +.0647 .00596157037703438 -.01171502999776074 0 0 -1 30 579
 628 0 413 580 300 0 +.0647 -26827695871259e-30 -.01171502999776074 187831359517
5595e-30 -1 0 30 580 629 0 407 581 579 0 +.0647 838784414845603e-32 -.0148900299
9776074 0 0 -1 16 407 514 0 ?384 413 389 580 0 0 1 30 581 630 0 389 394 580 0 +.
0647 .00913657037703434 -.01489002999776074 -1878313595175595e-30 1 -18986593485
20095e-31 16 389 515 0 ?386 407 391 581 0 0 1 30 394 631 0 391 395 581 0 +.0647
 .00913657037703438 -.0051 -332823769645525e-45 17719286625001e-29 1 30 395 632
 0 323 0 394 0 +.0647 .01335 -.0051 -1878313595175595e-30 1 -2058564674394415e-3
1 17 384 0 152 386 382 383 404 407 0 388 +17 382 0 152 384 379 380 409 413 0 404
 +17 388 0 398 336 393 383 386 389 0 400 -82 1 466 -108265296 82 1 459 -3866448
 82 1 451 -103677779 17 40 0 345 158 42 35 34 41 0 0 -19 17 352 0 1 0 9 5 S0 74
 4 CI16 index_map_offset0 0 1 dCCZ20 15 7 0 0 543 582 583 584 13 566 2 0 0 0 0 0
 0 0 0 0 0 0 0 0 81 2 582 666 585 1 0 583 0 0 0 586 81 2 583 679 587 1 582 584 0
 0 0 588 81 1 584 695 589 1 583 13 0 0 590 81 2 13 696 591 1 584 2 0 0 0 0 80 2
 591 592 593 9000 0 0 0 0 3 5 0 0 0 FFTFFFFFFFFFFF9 1 79 16 593 BODY_RECIPE_2001
80 1 589 594 595 9000 1 1 1 1 1 1 1 1 0 FFTFFFFFFFFFFF1 82 1 590 63580 79 10 595
 BODY_MATCH80 2 587 596 597 9000 0 0 0 0 3 5 0 0 0 FFTFFFFFFFFFFF9 1 82 1 588 93
 79 30 597 LAST_BODY_MODIFYING_FEATURE_ID80 2 585 598 599 9000 0 0 0 0 3 5 0 0 0
 FFTFFFFFFFFFFF9 1 82 1 586 124 79 19 599 ENT_TIME_STAMP_200180 2 12 600 601 900
0 0 0 0 0 3 5 0 0 0 FFTFFFFFFFFFFF9 1 82 1 14 102 79 12 601 ATOM_ID_20011 0 
